<mxfile host="app.diagrams.net" modified="2024-05-30T07:20:31.151Z" agent="Mozilla/5.0 (Windows NT 10.0; Win64; x64) AppleWebKit/537.36 (KHTML, like Gecko) Chrome/125.0.0.0 Safari/537.36" etag="G_1d_WgtWI_9o91KAnPV" version="24.4.10" type="github">
  <diagram name="第 1 页" id="rBXsdd6u580XRJ4FUYaZ">
    <mxGraphModel dx="1221" dy="806" grid="1" gridSize="10" guides="1" tooltips="1" connect="1" arrows="1" fold="1" page="1" pageScale="1" pageWidth="827" pageHeight="1169" math="0" shadow="0">
      <root>
        <mxCell id="0" />
        <mxCell id="1" parent="0" />
      </root>
    </mxGraphModel>
  </diagram>
</mxfile>
